<svg width="25" height="24" viewBox="0 0 25 24" fill="none" xmlns="http://www.w3.org/2000/svg">
<g clip-path="url(#clip0_24_1219)">
<path d="M20.1 0C21.3396 0 22.3995 0.440104 23.2797 1.32031C24.1599 2.20052 24.6 3.26042 24.6 4.5V19.5C24.6 20.7396 24.1599 21.7995 23.2797 22.6797C22.3995 23.5599 21.3396 24 20.1 24H17.1625V14.7031H20.2719L20.7406 11.0781H17.1625V8.76562C17.1625 8.18229 17.2849 7.74479 17.5297 7.45312C17.7745 7.16146 18.251 7.01562 18.9594 7.01562L20.8656 7V3.76562C20.2094 3.67188 19.2823 3.625 18.0844 3.625C16.6677 3.625 15.5349 4.04167 14.6859 4.875C13.837 5.70833 13.4125 6.88542 13.4125 8.40625V11.0781H10.2875V14.7031H13.4125V24H5.09998C3.86039 24 2.8005 23.5599 1.92029 22.6797C1.04008 21.7995 0.599976 20.7396 0.599976 19.5V4.5C0.599976 3.26042 1.04008 2.20052 1.92029 1.32031C2.8005 0.440104 3.86039 0 5.09998 0H20.1Z" fill="#2977FF"/>
</g>
<defs>
<clipPath id="clip0_24_1219">
<rect width="24" height="24" fill="white" transform="translate(0.599976)"/>
</clipPath>
</defs>
</svg>
