<svg width="26" height="24" viewBox="0 0 26 24" fill="none" xmlns="http://www.w3.org/2000/svg">
<g clip-path="url(#clip0_24_1213)">
<path d="M12.8599 0C15.0833 0 17.1339 0.547872 19.0115 1.64362C20.8892 2.73936 22.3759 4.22606 23.4716 6.10372C24.5674 7.98138 25.1153 10.0319 25.1153 12.2553C25.1153 14.9255 24.336 17.3271 22.7775 19.4601C21.219 21.5931 19.2057 23.0691 16.7376 23.8883C16.4504 23.9415 16.2376 23.9043 16.0993 23.7766C15.961 23.6489 15.8918 23.4894 15.8918 23.2979C15.8918 23.266 15.8945 22.859 15.8998 22.0771C15.9051 21.2952 15.9078 20.5798 15.9078 19.9309C15.9078 18.8989 15.6312 18.1436 15.078 17.6649C15.6844 17.6011 16.2296 17.5053 16.7137 17.3777C17.1977 17.25 17.6977 17.0426 18.2137 16.7553C18.7296 16.4681 19.1605 16.1144 19.5062 15.6941C19.852 15.2739 20.1339 14.7154 20.352 14.0186C20.57 13.3218 20.6791 12.5213 20.6791 11.617C20.6791 10.3511 20.2589 9.25532 19.4184 8.32979C19.8121 7.3617 19.7695 6.2766 19.2908 5.07447C18.9929 4.97872 18.5621 5.03723 17.9982 5.25C17.4344 5.46277 16.945 5.69681 16.5301 5.95213L15.9238 6.33511C14.9344 6.05851 13.9131 5.92021 12.8599 5.92021C11.8067 5.92021 10.7855 6.05851 9.7961 6.33511C9.62589 6.21809 9.39983 6.07447 9.11791 5.90426C8.836 5.73404 8.39185 5.52926 7.78547 5.28989C7.17908 5.05053 6.72695 4.97872 6.42908 5.07447C5.95036 6.2766 5.90781 7.3617 6.30142 8.32979C5.461 9.25532 5.04078 10.3511 5.04078 11.617C5.04078 12.5213 5.14983 13.3191 5.36791 14.0106C5.586 14.7021 5.86525 15.2606 6.20568 15.6862C6.5461 16.1117 6.9743 16.4681 7.49025 16.7553C8.00621 17.0426 8.50621 17.25 8.99025 17.3777C9.47429 17.5053 10.0195 17.6011 10.6259 17.6649C10.211 18.0479 9.95036 18.5957 9.84398 19.3085C9.62057 19.4149 9.38121 19.4947 9.12589 19.5479C8.87057 19.6011 8.56738 19.6277 8.21632 19.6277C7.86525 19.6277 7.51685 19.5133 7.1711 19.2846C6.82536 19.0559 6.53015 18.7234 6.28547 18.2872C6.08334 17.9468 5.82536 17.6702 5.51153 17.4574C5.1977 17.2447 4.9344 17.117 4.72164 17.0745L4.40249 17.0266C4.17908 17.0266 4.02483 17.0505 3.93972 17.0984C3.85461 17.1463 3.82802 17.2074 3.85993 17.2819C3.89185 17.3564 3.93972 17.4309 4.00355 17.5053C4.06738 17.5798 4.13653 17.6436 4.211 17.6968L4.3227 17.7766C4.55674 17.883 4.78813 18.0851 5.01685 18.383C5.24557 18.6809 5.41313 18.9521 5.51951 19.1968L5.67908 19.5638C5.81738 19.9681 6.05142 20.2952 6.38121 20.5452C6.711 20.7952 7.06738 20.9548 7.45036 21.0239C7.83334 21.0931 8.20302 21.1303 8.5594 21.1356C8.91578 21.141 9.211 21.1223 9.44504 21.0798L9.81206 21.016C9.81206 21.4202 9.81472 21.891 9.82004 22.4282C9.82536 22.9654 9.82802 23.2553 9.82802 23.2979C9.82802 23.4894 9.75887 23.6489 9.62057 23.7766C9.48227 23.9043 9.26951 23.9415 8.98227 23.8883C6.51419 23.0691 4.50089 21.5931 2.94238 19.4601C1.38387 17.3271 0.604614 14.9255 0.604614 12.2553C0.604614 10.0319 1.15249 7.98138 2.24823 6.10372C3.34398 4.22606 4.83068 2.73936 6.70834 1.64362C8.586 0.547872 10.6365 0 12.8599 0ZM5.24823 17.6011C5.28015 17.5266 5.24291 17.4628 5.13653 17.4096C5.03015 17.3777 4.961 17.3883 4.92908 17.4415C4.89717 17.516 4.9344 17.5798 5.04078 17.633C5.13653 17.6968 5.20568 17.6862 5.24823 17.6011ZM5.74291 18.1436C5.81738 18.0904 5.80674 18.0053 5.711 17.8883C5.60461 17.7926 5.51951 17.7766 5.45568 17.8404C5.38121 17.8936 5.39185 17.9787 5.48759 18.0957C5.59398 18.2021 5.67908 18.2181 5.74291 18.1436ZM6.22164 18.8617C6.31738 18.7872 6.31738 18.6862 6.22164 18.5585C6.13653 18.4202 6.0461 18.3883 5.95036 18.4628C5.85461 18.516 5.85461 18.6117 5.95036 18.75C6.0461 18.8883 6.13653 18.9255 6.22164 18.8617ZM6.89185 19.5319C6.97695 19.4468 6.95568 19.3457 6.82802 19.2287C6.70036 19.1011 6.59398 19.0851 6.50887 19.1809C6.41313 19.266 6.4344 19.367 6.5727 19.484C6.70036 19.6117 6.80674 19.6277 6.89185 19.5319ZM7.80142 19.9309C7.83334 19.8138 7.76419 19.7287 7.59398 19.6755C7.4344 19.633 7.33334 19.6702 7.29078 19.7872C7.24823 19.9043 7.31738 19.984 7.49823 20.0266C7.65781 20.0904 7.75887 20.0585 7.80142 19.9309ZM8.80674 20.0106C8.80674 19.8723 8.71632 19.8138 8.53547 19.8351C8.36525 19.8351 8.28015 19.8936 8.28015 20.0106C8.28015 20.1489 8.37057 20.2074 8.55142 20.1862C8.72164 20.1862 8.80674 20.1277 8.80674 20.0106ZM9.73227 19.8511C9.711 19.734 9.61525 19.6862 9.44504 19.7074C9.27483 19.7394 9.20036 19.8191 9.22164 19.9468C9.24291 20.0745 9.33866 20.117 9.50887 20.0745C9.67908 20.0319 9.75355 19.9574 9.73227 19.8511Z" fill="#2977FF"/>
</g>
<defs>
<clipPath id="clip0_24_1213">
<rect width="24.52" height="24" fill="white" transform="translate(0.599976)"/>
</clipPath>
</defs>
</svg>
