<svg width="24" height="24" viewBox="0 0 24 24" fill="none" xmlns="http://www.w3.org/2000/svg">
<g clip-path="url(#clip0_24_1209)">
<path d="M12 10.2812H23.3281C23.4531 10.9792 23.5156 11.6458 23.5156 12.2812C23.5156 14.5417 23.0417 16.5599 22.0938 18.3359C21.1458 20.112 19.7943 21.5 18.0391 22.5C16.2839 23.5 14.2708 24 12 24C10.3646 24 8.80729 23.6849 7.32812 23.0547C5.84896 22.4245 4.57292 21.5729 3.5 20.5C2.42708 19.4271 1.57552 18.151 0.945312 16.6719C0.315104 15.1927 0 13.6354 0 12C0 10.3646 0.315104 8.80729 0.945312 7.32812C1.57552 5.84896 2.42708 4.57292 3.5 3.5C4.57292 2.42708 5.84896 1.57552 7.32812 0.945312C8.80729 0.315104 10.3646 0 12 0C15.125 0 17.8073 1.04688 20.0469 3.14062L16.7812 6.28125C15.5 5.04167 13.9062 4.42188 12 4.42188C10.6562 4.42188 9.41406 4.76042 8.27344 5.4375C7.13281 6.11458 6.22917 7.03385 5.5625 8.19531C4.89583 9.35677 4.5625 10.625 4.5625 12C4.5625 13.375 4.89583 14.6432 5.5625 15.8047C6.22917 16.9661 7.13281 17.8854 8.27344 18.5625C9.41406 19.2396 10.6562 19.5781 12 19.5781C12.9062 19.5781 13.7396 19.4531 14.5 19.2031C15.2604 18.9531 15.8854 18.6406 16.375 18.2656C16.8646 17.8906 17.2917 17.4635 17.6562 16.9844C18.0208 16.5052 18.2891 16.0521 18.4609 15.625C18.6328 15.1979 18.75 14.7917 18.8125 14.4062H12V10.2812Z" fill="#2977FF"/>
</g>
<defs>
<clipPath id="clip0_24_1209">
<rect width="24" height="24" fill="white"/>
</clipPath>
</defs>
</svg>
