<svg width="24" height="25" viewBox="0 0 24 25" fill="none" xmlns="http://www.w3.org/2000/svg">
<g clip-path="url(#clip0_29_3069)">
<path d="M15.9241 18.0045L17.8929 8.72321C17.9732 8.33036 17.9263 8.04911 17.7522 7.87946C17.5781 7.70982 17.3482 7.67857 17.0625 7.78571L5.49107 12.2455C5.23214 12.3438 5.0558 12.4554 4.96205 12.5804C4.8683 12.7054 4.85714 12.8237 4.92857 12.9353C5 13.0469 5.14286 13.1339 5.35714 13.1964L8.31696 14.1205L15.1875 9.79464C15.375 9.66964 15.5179 9.64286 15.6161 9.71429C15.6786 9.75893 15.6607 9.82589 15.5625 9.91518L10.0045 14.9375L9.79018 17.9911C9.99554 17.9911 10.1964 17.8929 10.3929 17.6964L11.8393 16.3036L14.8393 18.5134C15.4107 18.8348 15.7723 18.6652 15.9241 18.0045ZM24 12.5C24 14.125 23.683 15.6786 23.0491 17.1607C22.4152 18.6429 21.5625 19.9196 20.4911 20.9911C19.4196 22.0625 18.1429 22.9152 16.6607 23.5491C15.1786 24.183 13.625 24.5 12 24.5C10.375 24.5 8.82143 24.183 7.33929 23.5491C5.85714 22.9152 4.58036 22.0625 3.50893 20.9911C2.4375 19.9196 1.58482 18.6429 0.950893 17.1607C0.316964 15.6786 0 14.125 0 12.5C0 10.875 0.316964 9.32143 0.950893 7.83929C1.58482 6.35714 2.4375 5.08036 3.50893 4.00893C4.58036 2.9375 5.85714 2.08482 7.33929 1.45089C8.82143 0.816964 10.375 0.5 12 0.5C13.625 0.5 15.1786 0.816964 16.6607 1.45089C18.1429 2.08482 19.4196 2.9375 20.4911 4.00893C21.5625 5.08036 22.4152 6.35714 23.0491 7.83929C23.683 9.32143 24 10.875 24 12.5Z" fill="black"/>
</g>
<defs>
<clipPath id="clip0_29_3069">
<rect width="24" height="24" fill="white" transform="translate(0 0.5)"/>
</clipPath>
</defs>
</svg>
