<svg width="30" height="24" viewBox="0 0 30 24" fill="none" xmlns="http://www.w3.org/2000/svg">
<g clip-path="url(#clip0_24_1211)">
<path d="M29.775 2.85C28.9375 4.075 27.925 5.11875 26.7375 5.98125C26.75 6.15625 26.7562 6.41875 26.7562 6.76875C26.7562 8.39375 26.5187 10.0156 26.0437 11.6344C25.5687 13.2531 24.8469 14.8063 23.8781 16.2938C22.9094 17.7812 21.7562 19.0969 20.4187 20.2406C19.0812 21.3844 17.4687 22.2969 15.5812 22.9781C13.6937 23.6594 11.675 24 9.52498 24C6.13748 24 3.03748 23.0938 0.224976 21.2812C0.662476 21.3313 1.14998 21.3563 1.68748 21.3563C4.49998 21.3563 7.00623 20.4938 9.20623 18.7688C7.89373 18.7438 6.71873 18.3406 5.68123 17.5594C4.64373 16.7781 3.93123 15.7813 3.54373 14.5688C3.95623 14.6313 4.33748 14.6625 4.68748 14.6625C5.22498 14.6625 5.75623 14.5938 6.28123 14.4563C4.88123 14.1688 3.72185 13.4719 2.8031 12.3656C1.88435 11.2594 1.42498 9.975 1.42498 8.5125V8.4375C2.27498 8.9125 3.18748 9.16875 4.16248 9.20625C3.33748 8.65625 2.68123 7.9375 2.19373 7.05C1.70623 6.1625 1.46248 5.2 1.46248 4.1625C1.46248 3.0625 1.73748 2.04375 2.28748 1.10625C3.79998 2.96875 5.6406 4.45938 7.80935 5.57812C9.9781 6.69688 12.3 7.31875 14.775 7.44375C14.675 6.96875 14.625 6.50625 14.625 6.05625C14.625 4.38125 15.2156 2.95312 16.3969 1.77188C17.5781 0.590625 19.0062 0 20.6812 0C22.4312 0 23.9062 0.6375 25.1062 1.9125C26.4687 1.65 27.75 1.1625 28.95 0.45C28.4875 1.8875 27.6 3 26.2875 3.7875C27.45 3.6625 28.6125 3.35 29.775 2.85Z" fill="#2977FF"/>
</g>
<defs>
<clipPath id="clip0_24_1211">
<rect width="30" height="24" fill="white"/>
</clipPath>
</defs>
</svg>
