<svg width="37" height="24" viewBox="0 0 37 24" fill="none" xmlns="http://www.w3.org/2000/svg">
<g clip-path="url(#clip0_24_1221)">
<path d="M36.5438 4.94999C36.8313 5.74999 35.8938 7.58749 33.7313 10.4625C33.4313 10.8625 33.0251 11.3937 32.5126 12.0562C32.0126 12.6937 31.6688 13.1437 31.4813 13.4062C31.2938 13.6687 31.1032 13.9781 30.9094 14.3344C30.7157 14.6906 30.6407 14.9531 30.6844 15.1219C30.7282 15.2906 30.8094 15.5062 30.9282 15.7687C31.0469 16.0312 31.25 16.3 31.5375 16.575C31.8251 16.85 32.1813 17.1812 32.6063 17.5687C32.6563 17.5937 32.6875 17.6187 32.7001 17.6437C34.4626 19.2812 35.6563 20.6625 36.2813 21.7875C36.3188 21.85 36.3594 21.9281 36.4032 22.0219C36.4469 22.1156 36.4907 22.2812 36.5344 22.5187C36.5782 22.7562 36.5751 22.9687 36.5251 23.1562C36.4751 23.3437 36.3188 23.5156 36.0563 23.6719C35.7938 23.8281 35.425 23.9062 34.9501 23.9062L30.15 23.9812C29.85 24.0437 29.5 24.0125 29.1 23.8875C28.7001 23.7625 28.375 23.625 28.125 23.475L27.75 23.25C27.375 22.9875 26.9375 22.5875 26.4375 22.05C25.9375 21.5125 25.5094 21.0281 25.1532 20.5969C24.7969 20.1656 24.4157 19.8031 24.0094 19.5094C23.6032 19.2156 23.25 19.1187 22.9501 19.2187C22.9125 19.2312 22.8625 19.2531 22.8 19.2844C22.7375 19.3156 22.6313 19.4062 22.4813 19.5562C22.3313 19.7062 22.1969 19.8906 22.0782 20.1094C21.9594 20.3281 21.8532 20.6531 21.7594 21.0844C21.6657 21.5156 21.625 22 21.6376 22.5375C21.6376 22.725 21.6157 22.8969 21.5719 23.0531C21.5282 23.2094 21.4813 23.325 21.4313 23.4L21.3563 23.4937C21.1313 23.7312 20.8 23.8687 20.3625 23.9062H18.2063C17.3188 23.9562 16.4063 23.8531 15.4688 23.5969C14.5313 23.3406 13.7094 23.0094 13.0032 22.6031C12.2969 22.1969 11.6532 21.7844 11.0719 21.3656C10.4907 20.9469 10.05 20.5875 9.75005 20.2875L9.2813 19.8375C9.1563 19.7125 8.98442 19.525 8.76567 19.275C8.54692 19.025 8.10005 18.4562 7.42505 17.5687C6.75005 16.6812 6.08755 15.7375 5.43755 14.7375C4.78755 13.7375 4.02192 12.4187 3.14067 10.7812C2.25942 9.14374 1.4438 7.44374 0.693799 5.68124C0.618799 5.48124 0.581299 5.31249 0.581299 5.17499C0.581299 5.03749 0.600049 4.93749 0.637549 4.87499L0.712549 4.76249C0.900049 4.52499 1.2563 4.40624 1.7813 4.40624L6.9188 4.36874C7.0688 4.39374 7.21255 4.43437 7.35005 4.49062C7.48755 4.54687 7.58755 4.59999 7.65005 4.64999L7.7438 4.70624C7.9438 4.84374 8.0938 5.04374 8.1938 5.30624C8.4438 5.93124 8.7313 6.57812 9.0563 7.24687C9.3813 7.91562 9.63755 8.42499 9.82505 8.77499L10.125 9.31874C10.4875 10.0687 10.8375 10.7187 11.175 11.2687C11.5125 11.8187 11.8157 12.2469 12.0844 12.5531C12.3532 12.8594 12.6125 13.1 12.8625 13.275C13.1125 13.45 13.325 13.5375 13.5 13.5375C13.675 13.5375 13.8438 13.5062 14.0063 13.4437C14.0313 13.4312 14.0625 13.4 14.1 13.35C14.1375 13.3 14.2125 13.1625 14.325 12.9375C14.4375 12.7125 14.5219 12.4187 14.5782 12.0562C14.6344 11.6937 14.6938 11.1875 14.7563 10.5375C14.8188 9.88749 14.8188 9.10624 14.7563 8.19374C14.7313 7.69374 14.675 7.23749 14.5875 6.82499C14.5 6.41249 14.4125 6.12499 14.325 5.96249L14.2125 5.73749C13.9 5.31249 13.3688 5.04374 12.6188 4.93124C12.4563 4.90624 12.4875 4.75624 12.7125 4.48124C12.9125 4.24374 13.15 4.05624 13.425 3.91874C14.0875 3.59374 15.5813 3.44374 17.9063 3.46874C18.9313 3.48124 19.775 3.56249 20.4375 3.71249C20.6875 3.77499 20.8969 3.85937 21.0657 3.96562C21.2344 4.07187 21.3625 4.22187 21.4501 4.41562C21.5375 4.60937 21.6032 4.80937 21.6469 5.01562C21.6907 5.22187 21.7125 5.50624 21.7125 5.86874C21.7125 6.23124 21.7063 6.57499 21.6938 6.89999C21.6813 7.22499 21.6657 7.66562 21.6469 8.22187C21.6282 8.77812 21.6188 9.29374 21.6188 9.76874C21.6188 9.90624 21.6125 10.1687 21.6 10.5562C21.5875 10.9437 21.5844 11.2437 21.5907 11.4562C21.5969 11.6687 21.6188 11.9219 21.6563 12.2156C21.6938 12.5094 21.7657 12.7531 21.8719 12.9469C21.9782 13.1406 22.1188 13.2937 22.2938 13.4062C22.3938 13.4312 22.5 13.4562 22.6125 13.4812C22.725 13.5062 22.8876 13.4375 23.1 13.275C23.3125 13.1125 23.55 12.8969 23.8125 12.6281C24.0751 12.3594 24.4 11.9406 24.7875 11.3719C25.1751 10.8031 25.6 10.1312 26.0625 9.35624C26.8125 8.05624 27.4813 6.64999 28.0688 5.13749C28.1188 5.01249 28.1813 4.90312 28.2563 4.80937C28.3313 4.71562 28.4 4.64999 28.4625 4.61249L28.5375 4.55624L28.6313 4.50937L28.875 4.45312L29.25 4.44374L34.6501 4.40624C35.1376 4.34374 35.5376 4.35937 35.8501 4.45312C36.1626 4.54687 36.3563 4.64999 36.4313 4.76249L36.5438 4.94999Z" fill="#2977FF"/>
</g>
<defs>
<clipPath id="clip0_24_1221">
<rect width="36.6" height="24" fill="white"/>
</clipPath>
</defs>
</svg>
