<svg width="48" height="48" viewBox="0 0 48 48" fill="none" xmlns="http://www.w3.org/2000/svg">
<g clip-path="url(#clip0_29_2496)">
<path d="M11.9616 5.5L8.04327 19.5L11.9616 16L16.8596 19.5L11.9616 5.5Z" fill="#EEEEEE"/>
<path d="M35.4718 5.5L30.084 19.5L35.4718 16.5L39.3902 19.5L35.4718 5.5Z" fill="#EEEEEE"/>
<path d="M30.084 19.5L23.7167 35.5H44.2881L39.3901 19.5L35.4718 16.5L30.084 19.5Z" fill="#757575"/>
<path d="M8.04322 19.5L3.14526 35.5H23.7167L16.8595 19.5L11.9616 16L8.04322 19.5Z" fill="#757575"/>
<path d="M23.7167 35.5L16.8595 19.5M23.7167 35.5L30.084 19.5M23.7167 35.5H44.2881L39.3901 19.5M23.7167 35.5H3.14526L8.04322 19.5M16.8595 19.5L11.9616 5.5L8.04322 19.5M16.8595 19.5L11.9616 16L8.04322 19.5M30.084 19.5L35.4718 5.5L39.3901 19.5M30.084 19.5L35.4718 16.5L39.3901 19.5" stroke="#212121" stroke-width="2"/>
<mask id="mask0_29_2496" style="mask-type:alpha" maskUnits="userSpaceOnUse" x="-6" y="-6" width="41" height="58">
<path d="M34.7885 3.36548L12.9412 -5.5L-5.87753 42.8277L15.9699 51.6932L34.7885 3.36548Z" fill="#D9D9D9"/>
<path d="M28.6147 22.5H4.12488V45.5H28.6147V22.5Z" fill="#D9D9D9"/>
</mask>
<g mask="url(#mask0_29_2496)">
<path d="M41.2911 23.9203C39.7083 19.2848 34.3414 15.9956 29.8004 17.6114C25.2595 19.2272 24.5717 24.6706 24.6409 29.8448C24.71 35.0189 24.0223 40.4624 19.4814 42.0781C14.9404 43.6939 9.57345 40.4048 7.99066 35.7692" stroke="#2977FF" stroke-width="5" stroke-linecap="round"/>
</g>
</g>
<defs>
<clipPath id="clip0_29_2496">
<rect width="48" height="48" fill="white"/>
</clipPath>
</defs>
</svg>
